<svg xmlns="http://www.w3.org/2000/svg" width="32" height="22" viewBox="0 0 32 22"><g><g><g opacity=".2"><path fill="#fff" d="M29.201 16.444h2.124v2.124H29.2z"/></g><g opacity=".2"><path fill="#fff" d="M29.201 7.949h2.124v2.124H29.2z"/></g><g opacity=".2"><path fill="#fff" d="M17.52 20.691h4.248V3.701L19.644.516 17.521 3.7V7.95h-3.186v2.124h3.186v6.37h-3.186v2.125h3.186z"/></g><g opacity=".2"><path fill="#fff" d="M2.655 20.691h4.247V3.701L4.778.516 2.655 3.7V7.95H.53v2.124h2.124v6.37H.53v2.125h2.124z"/></g><g><g><path fill="#fff" d="M11.68 5.825h1.062v11.15H11.68z"/></g><g><path fill="#fff" d="M11.68 18.037h1.062v1.061H11.68z"/></g><g><path fill="#fff" d="M26.547 5.825h1.061v11.15h-1.061z"/></g><g><path fill="#fff" d="M26.547 18.037h1.061v1.061h-1.061z"/></g><g><path fill="#fff" d="M19.113 5.825h1.062v11.15h-1.062z"/></g><g><path fill="#fff" d="M19.113 18.037h1.062v1.061h-1.062z"/></g><g><path fill="#fff" d="M4.247 5.825H5.31v11.15H4.247z"/></g><g><path fill="#fff" d="M4.247 18.037H5.31v1.061H4.247z"/></g><g><path fill="#fff" d="M30.794 16.975v1.062h-1.062v-1.062zm0-8.495v1.062h-1.062V8.48zM28.67 20.16h-3.185V3.86l1.592-2.388L28.67 3.86zM24.423 9.542h-2.124V8.48h2.124zm0 6.37h-2.124v-5.308h2.124zm0 2.125h-2.124v-1.062h2.124zm-3.186 2.123h-3.185V3.86l1.592-2.388 1.593 2.389zm-6.37-2.123v-1.062h2.123v1.062zm2.123-7.433v5.309h-2.124v-5.31zm0-2.124v1.062h-2.124V8.48zm-3.186 11.68H10.62V3.86l1.592-2.388 1.593 2.389zm-6.371-2.123v-1.062h2.124v1.062zm2.124-7.433v5.309H7.433v-5.31zm0-2.124v1.062H7.433V8.48zM6.37 20.16H3.186V3.86l1.592-2.388L6.371 3.86zm-5.31-2.123v-1.062h1.063v1.062zm0-8.495V8.48h1.063v1.062zm30.264 1.062a.53.53 0 0 0 .53-.531V7.949a.53.53 0 0 0-.53-.531h-1.593V3.701a.534.534 0 0 0-.09-.294L27.52.22a.552.552 0 0 0-.883 0l-2.124 3.186a.534.534 0 0 0-.09.294v3.717H22.3V3.701a.534.534 0 0 0-.09-.294L20.087.22a.552.552 0 0 0-.883 0l-2.124 3.186a.534.534 0 0 0-.09.294v3.717h-2.123V3.701a.534.534 0 0 0-.09-.294L12.654.22a.552.552 0 0 0-.883 0L9.646 3.407a.534.534 0 0 0-.09.294v3.717H7.434V3.701a.534.534 0 0 0-.09-.294L5.22.22a.552.552 0 0 0-.883 0L2.213 3.407a.534.534 0 0 0-.09.294v3.717H.532a.53.53 0 0 0-.531.53v2.125c0 .293.238.53.53.53h1.594v5.31H.53a.53.53 0 0 0-.531.53v2.125c0 .293.238.53.53.53h1.594v1.593c0 .293.237.531.53.531h4.248a.53.53 0 0 0 .531-.53v-1.594h2.124v1.593c0 .293.237.531.53.531h4.248a.53.53 0 0 0 .531-.53v-1.594h2.124v1.593c0 .293.237.531.53.531h4.248a.53.53 0 0 0 .531-.53v-1.594h2.124v1.593c0 .293.238.531.53.531h4.248a.53.53 0 0 0 .531-.53v-1.594h1.593a.53.53 0 0 0 .53-.53v-2.124a.53.53 0 0 0-.53-.531h-1.593v-5.31z"/></g></g></g></g></svg>