<svg xmlns="http://www.w3.org/2000/svg" width="20" height="28" viewBox="0 0 20 28"><g><g><g><path fill="#4d302b" d="M18.2 9.742c0 4.958-6.475 13.241-8.4 15.633-1.925-2.392-8.4-10.733-8.4-15.633 0-4.609 3.733-8.4 8.4-8.4s8.4 3.791 8.4 8.4zm-8.4 17.85l.525-.642c.35-.408 9.275-10.908 9.275-17.15 0-5.367-4.433-9.8-9.8-9.8C4.433 0 0 4.375 0 9.8c0 6.242 8.925 16.683 9.275 17.15l.525.642z"/></g><g><path fill="#4d302b" d="M12.133 9.8A2.34 2.34 0 0 1 9.8 12.133 2.34 2.34 0 0 1 7.467 9.8 2.34 2.34 0 0 1 9.8 7.467 2.34 2.34 0 0 1 12.133 9.8zm1.4 0c0-2.042-1.691-3.733-3.733-3.733S6.067 7.758 6.067 9.8s1.691 3.733 3.733 3.733 3.733-1.691 3.733-3.733z"/></g></g></g></svg>