<svg xmlns="http://www.w3.org/2000/svg" width="71" height="47" viewBox="0 0 71 47"><g><g><path fill="#fff" d="M68.51 37.502v2.346h-2.346v-2.346zm0-18.768v2.346h-2.346v-2.346zM63.818 44.54H56.78V8.53L60.3 3.25l3.518 5.278zm-9.384-23.46h-4.692v-2.346h4.692zm0 14.076h-4.692v-11.73h4.692zm0 4.692h-4.692v-2.346h4.692zm-7.038 4.692H40.36V8.53l3.518-5.279 3.52 5.278zm-14.075-4.692v-2.346h4.692v2.346zm4.692-16.422v11.73H33.32v-11.73zm0-4.692v2.346H33.32v-2.346zM30.975 44.54h-7.038V8.53l3.519-5.279 3.519 5.278zm-14.076-4.692v-2.346h4.692v2.346zm4.692-16.422v11.73h-4.692v-11.73zm0-4.692v2.346h-4.692v-2.346zM14.553 44.54H7.515V8.53l3.52-5.279 3.518 5.278zm-11.73-4.692v-2.346H5.17v2.346zm0-18.768v-2.346H5.17v2.346zm66.86 2.346c.648 0 1.173-.525 1.173-1.173v-4.692c0-.647-.525-1.173-1.173-1.173h-3.52v-8.21a1.18 1.18 0 0 0-.196-.651L61.275.489a1.219 1.219 0 0 0-1.952 0l-4.692 7.038a1.18 1.18 0 0 0-.197.65v8.211h-4.692v-8.21a1.18 1.18 0 0 0-.197-.651L44.853.489a1.219 1.219 0 0 0-1.951 0L38.21 7.527a1.18 1.18 0 0 0-.197.65v8.211H33.32v-8.21a1.18 1.18 0 0 0-.197-.651L28.432.489a1.219 1.219 0 0 0-1.952 0l-4.692 7.038a1.18 1.18 0 0 0-.197.65v8.211h-4.692v-8.21a1.18 1.18 0 0 0-.197-.651L12.01.489a1.219 1.219 0 0 0-1.952 0L5.366 7.527a1.18 1.18 0 0 0-.197.65v8.211H1.65c-.647 0-1.172.526-1.172 1.173v4.692c0 .648.525 1.173 1.172 1.173h3.52v11.73H1.65c-.647 0-1.172.525-1.172 1.173v4.692c0 .648.525 1.173 1.172 1.173h3.52v3.519c0 .648.525 1.173 1.172 1.173h9.384c.648 0 1.173-.525 1.173-1.173v-3.52h4.692v3.52c0 .648.525 1.173 1.173 1.173h9.384c.648 0 1.173-.525 1.173-1.173v-3.52h4.692v3.52c0 .648.525 1.173 1.173 1.173h9.383c.648 0 1.173-.525 1.173-1.173v-3.52h4.692v3.52c0 .648.525 1.173 1.173 1.173h9.384c.648 0 1.173-.525 1.173-1.173v-3.52h3.519c.648 0 1.173-.524 1.173-1.172v-4.692c0-.648-.525-1.173-1.173-1.173h-3.52v-11.73z"/></g></g></svg>